<svg width="18" height="18" viewBox="0 0 18 18" fill="none" xmlns="http://www.w3.org/2000/svg">
<path d="M4.21797 14.4285C4.04922 14.4285 3.88047 14.3723 3.76797 14.2316C3.51484 13.9785 3.51484 13.5848 3.76797 13.3316L12.2898 4.80977H5.48359C5.14609 4.80977 4.86484 4.52852 4.86484 4.19102C4.86484 3.85352 5.14609 3.57227 5.48359 3.57227H13.7805C14.118 3.57227 14.3992 3.85352 14.3992 4.19102V12.5441C14.3992 12.8816 14.118 13.1629 13.7805 13.1629C13.443 13.1629 13.1617 12.8816 13.1617 12.5441V5.76602L4.66797 14.2598C4.55547 14.3723 4.38672 14.4285 4.21797 14.4285Z" fill="#162D5F"/>
</svg>
