<svg width="135" height="61" viewBox="0 0 135 61" fill="none" xmlns="http://www.w3.org/2000/svg">
<g id="Image [css-1fre38p]" clip-path="url(#clip0_2155_45981)">
<g id="Clip path group">
<mask id="mask0_2155_45981" style="mask-type:luminance" maskUnits="userSpaceOnUse" x="0" y="0" width="135" height="61">
<g id="clip0_1613_166">
<path id="Vector" d="M134.307 0.266602H0.973877V60.2666H134.307V0.266602Z" fill="white"/>
</g>
</mask>
<g mask="url(#mask0_2155_45981)">
<g id="Group">
<g id="Mask group">
<mask id="mask1_2155_45981" style="mask-type:luminance" maskUnits="userSpaceOnUse" x="0" y="0" width="135" height="61">
<g id="Group_2">
<path id="Vector_2" d="M134.307 0.266602H0.973877V60.2666H134.307V0.266602Z" fill="white"/>
</g>
</mask>
<g mask="url(#mask1_2155_45981)">
<g id="Group_3">
<g id="Mask group_2">
<mask id="mask2_2155_45981" style="mask-type:luminance" maskUnits="userSpaceOnUse" x="0" y="8" width="135" height="45">
<g id="Group_4">
<path id="Vector_3" d="M134.307 8.55615H0.973877V52.5081H134.307V8.55615Z" fill="white"/>
</g>
</mask>
<g mask="url(#mask2_2155_45981)">
<g id="Group_5">
<path id="Vector_4" d="M121.805 37.4549C118.082 37.4549 115.457 34.5491 115.457 30.7278C115.457 26.9064 118.082 24.0006 121.805 24.0006C125.53 24.0006 128.081 26.9064 128.081 30.7278C128.081 34.5491 125.493 37.4549 121.805 37.4549ZM121.207 41.4594C124.21 41.4594 126.762 40.2873 128.374 37.8334C128.679 40.214 130.4 41.0809 132.574 41.0809H134.307V37.3084H133.563C132.33 37.3084 132.025 36.7101 132.025 35.3061V20.3868H128.045V23.4513C126.689 21.3025 124.137 20.0084 121.207 20.0084C115.982 20.0084 111.184 24.3914 111.184 30.7278C111.184 37.0642 115.994 41.4472 121.207 41.4472V41.4594ZM100.709 36.2828C100.709 39.6769 102.809 41.0809 105.324 41.0809H110.17V37.3084H106.642C105.177 37.3084 104.872 36.7468 104.872 35.3061V24.1594H110.17V20.3868H104.872V13.4399H100.709V36.2828ZM81.7481 41.0809H85.9113V32.205H87.3029L94.3963 41.0809H99.6587L90.6121 29.8243L97.5588 20.3868H92.8704L87.1929 28.3592H85.9113V13.4399H81.7481V41.0809ZM68.2328 20.0084C62.4093 20.0084 57.6111 24.3914 57.6111 30.7278C57.6111 37.0642 62.4214 41.4472 68.2328 41.4472C74.0443 41.4472 78.8546 37.0642 78.8546 30.7278C78.8546 24.3914 74.0443 20.0084 68.2328 20.0084ZM68.2328 37.4549C64.5092 37.4549 61.8843 34.5491 61.8843 30.7278C61.8843 26.9064 64.5092 24.0006 68.2328 24.0006C71.9566 24.0006 74.5815 26.9064 74.5815 30.7278C74.5815 34.5491 71.9566 37.4549 68.2328 37.4549Z" fill="#767494"/>
<path id="Vector_5" fill-rule="evenodd" clip-rule="evenodd" d="M25.1485 8.8736L24.245 20.0081C23.8176 19.9593 23.3904 19.9349 22.9508 19.9349C22.4015 19.9349 21.8642 19.9714 21.3393 20.0569L20.8265 14.6606C20.8143 14.4897 20.9485 14.3432 21.1195 14.3432H22.0351L21.5956 8.88577C21.5835 8.71485 21.7177 8.56836 21.8765 8.56836H24.8676C25.0385 8.56836 25.1729 8.71485 25.1485 8.88577V8.8736ZM17.6033 9.42302C17.5545 9.26427 17.3835 9.1666 17.2249 9.22768L14.4168 10.2532C14.2581 10.3143 14.1849 10.4974 14.2581 10.6439L16.5411 15.6251L15.6743 15.9425C15.5156 16.0036 15.4424 16.1867 15.5156 16.3332L17.8475 21.229C18.69 20.765 19.6056 20.411 20.5701 20.1913L17.6155 9.42302H17.6033ZM10.7175 12.524L17.176 21.6319C16.358 22.1691 15.6133 22.8039 14.9785 23.5364L11.1082 19.7273C10.9861 19.6052 10.9983 19.4099 11.1204 19.3L11.8285 18.7139L7.98273 14.8194C7.86064 14.6973 7.87284 14.5019 8.00714 14.392L10.2902 12.4752C10.4245 12.3654 10.6076 12.3898 10.7053 12.524H10.7175ZM5.29677 17.7983C5.16247 17.7006 4.96713 17.7494 4.88167 17.8959L3.39219 20.4843C3.30672 20.6308 3.36776 20.8139 3.51427 20.8871L8.47109 23.2313L8.00714 24.0249C7.92169 24.1714 7.98273 24.3667 8.14144 24.4277L13.0738 26.6864C13.4279 25.7707 13.904 24.9161 14.49 24.1469L5.29677 17.7983ZM1.64631 24.8306C1.67073 24.6597 1.84165 24.562 2.00037 24.5986L12.8052 27.4189C12.5245 28.3346 12.3657 29.2991 12.3413 30.3002L6.93276 29.8607C6.76184 29.8484 6.63974 29.6898 6.67638 29.5189L6.83509 28.6154L1.37771 28.1026C1.20679 28.0904 1.09691 27.9317 1.12133 27.7608L1.6341 24.8184L1.64631 24.8306ZM1.24342 32.1315C1.07249 32.1438 0.962612 32.3024 0.987029 32.4734L1.51201 35.4157C1.53643 35.5867 1.70735 35.6844 1.86607 35.6477L7.16473 34.2681L7.32344 35.1715C7.34786 35.3424 7.51879 35.4401 7.6775 35.4035L12.9029 33.9629C12.5977 33.0594 12.4024 32.0949 12.3535 31.106L1.23121 32.1315H1.24342ZM2.97708 39.8719C2.89162 39.7254 2.95266 39.5424 3.09917 39.4691L13.1837 34.6832C13.5622 35.5867 14.075 36.4291 14.6854 37.186L10.2658 40.3359C10.1315 40.4336 9.93613 40.3969 9.85071 40.2504L9.38671 39.4447L4.88167 42.5579C4.74737 42.6556 4.55203 42.6068 4.46656 42.4603L2.96487 39.8719H2.97708ZM15.1982 37.772L7.34786 45.72C7.22578 45.8421 7.23799 46.0374 7.37228 46.1474L9.66754 48.0641C9.80188 48.174 9.98496 48.1496 10.0826 48.0153L13.257 43.5469L13.965 44.1451C14.0994 44.2549 14.2947 44.2305 14.3924 44.084L17.469 39.6156C16.6388 39.1028 15.8697 38.4802 15.2104 37.772H15.1982ZM13.6476 50.5304C13.489 50.4693 13.4157 50.2862 13.489 50.1397L18.1405 39.9819C18.9951 40.4214 19.923 40.751 20.8875 40.9342L19.5201 46.1839C19.4835 46.3427 19.3004 46.4403 19.1416 46.3794L18.2748 46.0619L16.822 51.3484C16.7731 51.507 16.6022 51.6047 16.4435 51.5437L13.6355 50.5181L13.6476 50.5304ZM21.6567 41.0684L20.7532 52.2029C20.741 52.3739 20.8753 52.5204 21.034 52.5204H24.0252C24.1961 52.5204 24.3305 52.3739 24.306 52.2029L23.8665 46.7456H24.7821C24.9531 46.7456 25.0874 46.5991 25.0752 46.4282L24.5624 41.0319C24.0375 41.1173 23.5002 41.1539 22.9508 41.1539C22.5113 41.1539 22.084 41.1295 21.6567 41.0684ZM32.425 10.9247C32.4982 10.7659 32.425 10.595 32.2662 10.534L29.4582 9.50843C29.2995 9.44743 29.1285 9.5451 29.0797 9.70377L27.6269 14.9903L26.76 14.6729C26.6013 14.6118 26.4304 14.7094 26.3815 14.8682L25.0141 20.118C25.9909 20.3134 26.9065 20.6429 27.7611 21.0703L32.425 10.9247ZM38.5538 15.3565L30.7035 23.3045C30.0442 22.5964 29.2872 21.9738 28.4448 21.4609L31.5215 16.9925C31.6191 16.8582 31.8145 16.8216 31.9488 16.9314L32.6569 17.5297L35.8312 13.0613C35.9289 12.9269 36.1242 12.9025 36.2463 13.0124L38.5416 14.9292C38.6759 15.0391 38.6759 15.2344 38.566 15.3565H38.5538ZM42.8025 21.6074C42.9612 21.5342 43.01 21.3511 42.9245 21.2046L41.4229 18.6163C41.3375 18.4698 41.1421 18.4332 41.0078 18.5186L36.5027 21.6319L36.0388 20.8383C35.9533 20.6918 35.758 20.6429 35.6236 20.7529L31.204 23.9028C31.8145 24.6597 32.315 25.5021 32.7057 26.4055L42.7903 21.6197L42.8025 21.6074ZM44.3896 25.6609L44.9025 28.6032C44.9269 28.7741 44.817 28.9206 44.646 28.945L33.5237 29.9828C33.4749 28.9816 33.2795 28.0294 32.9743 27.1259L38.1997 25.6853C38.3585 25.6364 38.5294 25.7463 38.5538 25.9172L38.7125 26.8207L44.0112 25.441C44.1699 25.4044 44.3408 25.5021 44.3652 25.673L44.3896 25.6609ZM43.8891 36.4657C44.0478 36.5024 44.2187 36.4047 44.2431 36.2337L44.756 33.2914C44.7804 33.1204 44.6705 32.9739 44.4995 32.9495L39.0421 32.4368L39.2009 31.5333C39.2253 31.3624 39.1154 31.2159 38.9445 31.1914L33.536 30.7519C33.5115 31.753 33.3528 32.7175 33.072 33.6332L43.8769 36.4535L43.8891 36.4657ZM41.0078 43.1806C40.9223 43.3271 40.727 43.3637 40.5927 43.2783L31.3994 36.9296C31.9854 36.1604 32.4615 35.3059 32.8156 34.3902L37.748 36.6489C37.9067 36.7221 37.9678 36.9052 37.8823 37.0517L37.4184 37.8453L42.3752 40.1894C42.5217 40.2627 42.5827 40.4458 42.4973 40.5923L41.0078 43.1806ZM28.7135 39.4324L35.172 48.5403C35.2696 48.6746 35.465 48.699 35.587 48.5891L37.8701 46.6724C38.0044 46.5624 38.0044 46.3671 37.8945 46.245L34.0487 42.3504L34.7568 41.7644C34.8911 41.6544 34.8911 41.4591 34.769 41.337L30.8988 37.5279C30.2517 38.2604 29.5192 38.9074 28.7012 39.4324H28.7135ZM28.6524 51.8367C28.4937 51.8978 28.3227 51.8001 28.2739 51.6414L25.3194 40.8731C26.2839 40.6534 27.1995 40.2993 28.042 39.8354L30.3739 44.7311C30.4471 44.8899 30.3739 45.0729 30.2151 45.1218L29.3483 45.4392L31.6314 50.4204C31.7046 50.5792 31.6314 50.7501 31.4726 50.8111L28.6646 51.8367H28.6524Z" fill="#767494"/>
</g>
</g>
</g>
</g>
</g>
</g>
</g>
</g>
</g>
</g>
<defs>
<clipPath id="clip0_2155_45981">
<rect width="133.333" height="60" fill="white" transform="translate(0.973877 0.266602)"/>
</clipPath>
</defs>
</svg>
