<svg width="60" height="60" viewBox="0 0 60 60" fill="none" xmlns="http://www.w3.org/2000/svg">
<circle cx="30" cy="30" r="30" fill="#135BE2"/>
<path d="M57 30C57 15.0883 44.9117 3 30 3C15.0883 3 3 15.0883 3 30C3 44.9117 15.0883 57 30 57V58C14.536 58 3.00612 44.8831 3.00612 29.4191C3.00612 13.9551 14.536 2 30 2C45.464 2 57 14.536 57 30C57 45.464 45.464 58 30 58V57C44.9117 57 57 44.9117 57 30Z" fill="white"/>
<path d="M30.5 32.5L30.3706 32.4344C30.1309 32.3129 24.5 29.4234 24.5 26.3761V19.9102L30.4627 17.5L36.5 19.9093V26.376C36.5 29.4234 30.8691 32.3129 30.6295 32.4344L30.5 32.5ZM25.0711 20.2938V26.376C25.0711 27.4729 26.0203 28.7753 27.8161 30.1425C28.9626 31.0153 30.1196 31.6561 30.4998 31.8588C31.3356 31.4119 35.9289 28.8426 35.9289 26.376V20.2947L30.464 18.1139L25.0711 20.2938Z" fill="white"/>
<path d="M38.4861 42.5001V41.3921L41.0748 38.9951C41.295 38.782 41.4797 38.5903 41.6288 38.4198C41.7803 38.2494 41.8952 38.0825 41.9733 37.9191C42.0514 37.7534 42.0905 37.5747 42.0905 37.3829C42.0905 37.1698 42.0419 36.9864 41.9449 36.8325C41.8478 36.6762 41.7152 36.5567 41.5471 36.4738C41.3791 36.3886 41.1885 36.346 40.9754 36.346C40.7529 36.346 40.5587 36.391 40.393 36.4809C40.2273 36.5709 40.0995 36.6999 40.0095 36.868C39.9195 37.0361 39.8746 37.2361 39.8746 37.4681H38.415C38.415 36.9923 38.5228 36.5792 38.7382 36.2288C38.9536 35.8784 39.2555 35.6073 39.6437 35.4156C40.032 35.2238 40.4794 35.1279 40.9861 35.1279C41.5069 35.1279 41.9603 35.2203 42.3461 35.4049C42.7344 35.5872 43.0363 35.8405 43.2517 36.1649C43.4671 36.4892 43.5748 36.8609 43.5748 37.2799C43.5748 37.5545 43.5204 37.8256 43.4115 38.0931C43.305 38.3606 43.1144 38.6578 42.8398 38.9845C42.5651 39.3088 42.1781 39.6982 41.6785 40.1528L40.6167 41.1933V41.243H43.6707V42.5001H38.4861Z" fill="white"/>
<path d="M37.5242 37.7735H35.9688C35.9404 37.5723 35.8824 37.3936 35.7948 37.2373C35.7072 37.0787 35.5948 36.9437 35.4575 36.8325C35.3202 36.7212 35.1615 36.636 34.9816 36.5768C34.8041 36.5176 34.6111 36.488 34.4028 36.488C34.0264 36.488 33.6985 36.5815 33.4191 36.7686C33.1398 36.9532 32.9231 37.2231 32.7693 37.5782C32.6154 37.931 32.5384 38.3595 32.5384 38.8637C32.5384 39.3822 32.6154 39.8178 32.7693 40.1705C32.9255 40.5233 33.1433 40.7896 33.4227 40.9695C33.702 41.1495 34.0252 41.2394 34.3921 41.2394C34.5981 41.2394 34.7887 41.2122 34.9639 41.1578C35.1414 41.1033 35.2989 41.024 35.4362 40.9198C35.5735 40.8133 35.6871 40.6843 35.7771 40.5328C35.8694 40.3812 35.9333 40.2084 35.9688 40.0143L37.5242 40.0214C37.484 40.3552 37.3834 40.6772 37.2224 40.9873C37.0638 41.2951 36.8495 41.5709 36.5796 41.8147C36.3121 42.0562 35.9925 42.248 35.6208 42.39C35.2515 42.5297 34.8337 42.5995 34.3673 42.5995C33.7186 42.5995 33.1386 42.4527 32.6272 42.1592C32.1182 41.8656 31.7158 41.4407 31.4198 40.8843C31.1263 40.328 30.9795 39.6544 30.9795 38.8637C30.9795 38.0706 31.1286 37.3959 31.4269 36.8396C31.7252 36.2832 32.1301 35.8595 32.6414 35.5683C33.1528 35.2747 33.7281 35.1279 34.3673 35.1279C34.7887 35.1279 35.1793 35.1871 35.5392 35.3055C35.9014 35.4239 36.2222 35.5967 36.5015 35.824C36.7809 36.0489 37.0081 36.3247 37.1833 36.6514C37.3609 36.9781 37.4745 37.3521 37.5242 37.7735Z" fill="white"/>
<path d="M30.0708 38.8637C30.0708 39.6568 29.9205 40.3315 29.6199 40.8879C29.3216 41.4442 28.9144 41.8692 28.3983 42.1627C27.8845 42.4539 27.3069 42.5995 26.6653 42.5995C26.019 42.5995 25.439 42.4527 24.9252 42.1592C24.4115 41.8656 24.0055 41.4407 23.7072 40.8843C23.4089 40.328 23.2598 39.6544 23.2598 38.8637C23.2598 38.0706 23.4089 37.3959 23.7072 36.8396C24.0055 36.2832 24.4115 35.8595 24.9252 35.5683C25.439 35.2747 26.019 35.1279 26.6653 35.1279C27.3069 35.1279 27.8845 35.2747 28.3983 35.5683C28.9144 35.8595 29.3216 36.2832 29.6199 36.8396C29.9205 37.3959 30.0708 38.0706 30.0708 38.8637ZM28.5119 38.8637C28.5119 38.35 28.435 37.9168 28.2811 37.564C28.1296 37.2113 27.9153 36.9437 27.6383 36.7615C27.3613 36.5792 27.037 36.488 26.6653 36.488C26.2936 36.488 25.9693 36.5792 25.6923 36.7615C25.4153 36.9437 25.1999 37.2113 25.046 37.564C24.8945 37.9168 24.8187 38.35 24.8187 38.8637C24.8187 39.3775 24.8945 39.8107 25.046 40.1634C25.1999 40.5162 25.4153 40.7837 25.6923 40.966C25.9693 41.1483 26.2936 41.2394 26.6653 41.2394C27.037 41.2394 27.3613 41.1483 27.6383 40.966C27.9153 40.7837 28.1296 40.5162 28.2811 40.1634C28.435 39.8107 28.5119 39.3775 28.5119 38.8637Z" fill="white"/>
<path d="M20.8799 37.319C20.8515 37.0325 20.7296 36.81 20.5141 36.6514C20.2987 36.4927 20.0063 36.4134 19.637 36.4134C19.386 36.4134 19.1742 36.449 19.0013 36.52C18.8285 36.5886 18.6959 36.6845 18.6036 36.8076C18.5136 36.9307 18.4687 37.0704 18.4687 37.2267C18.4639 37.3569 18.4912 37.4705 18.5503 37.5676C18.6119 37.6646 18.6959 37.7487 18.8025 37.8197C18.909 37.8883 19.0321 37.9487 19.1718 38.0008C19.3115 38.0505 19.4606 38.0931 19.6192 38.1286L20.2726 38.2849C20.5899 38.3559 20.8811 38.4506 21.1462 38.569C21.4114 38.6874 21.641 38.8329 21.8351 39.0058C22.0293 39.1786 22.1796 39.3822 22.2861 39.6166C22.395 39.8509 22.4507 40.1196 22.453 40.4227C22.4507 40.8677 22.337 41.2536 22.1121 41.5803C21.8896 41.9047 21.5676 42.1568 21.1462 42.3367C20.7272 42.5143 20.2217 42.6031 19.6299 42.6031C19.0428 42.6031 18.5314 42.5131 18.0958 42.3332C17.6626 42.1533 17.324 41.8869 17.0802 41.5342C16.8387 41.1791 16.712 40.7399 16.7002 40.2167H18.1881C18.2047 40.4606 18.2745 40.6642 18.3976 40.8275C18.5231 40.9885 18.69 41.1104 18.8983 41.1933C19.109 41.2738 19.347 41.314 19.6121 41.314C19.8725 41.314 20.0986 41.2761 20.2904 41.2004C20.4845 41.1246 20.6349 41.0193 20.7414 40.8843C20.8479 40.7494 20.9012 40.5943 20.9012 40.4191C20.9012 40.2558 20.8527 40.1185 20.7556 40.0072C20.6609 39.8959 20.5212 39.8012 20.3366 39.7231C20.1543 39.645 19.9305 39.574 19.6654 39.51L18.8735 39.3112C18.2603 39.162 17.7762 38.9288 17.4211 38.6116C17.066 38.2944 16.8896 37.867 16.892 37.3296C16.8896 36.8893 17.0068 36.5046 17.2435 36.1755C17.4826 35.8464 17.8105 35.5896 18.2272 35.4049C18.6439 35.2203 19.1173 35.1279 19.6476 35.1279C20.1874 35.1279 20.6585 35.2203 21.061 35.4049C21.4658 35.5896 21.7807 35.8464 22.0056 36.1755C22.2305 36.5046 22.3465 36.8857 22.3536 37.319H20.8799Z" fill="white"/>
</svg>
